<?xml version="1.0" encoding="utf-8"?>
<!-- Generator: Adobe Illustrator 23.0.1, SVG Export Plug-In . SVG Version: 6.00 Build 0)  -->
<svg version="1.1" id="Laag_1" xmlns="http://www.w3.org/2000/svg" xmlns:xlink="http://www.w3.org/1999/xlink" x="0px" y="0px"
	 viewBox="0 0 100 100" style="enable-background:new 0 0 100 100;" xml:space="preserve">
<style type="text/css">
	.st0{fill:#FFFFFF;}
	.st1{fill:#C2EEBF;}
	.st2{fill:#1D1D1B;}
	.st3{font-family:'NouvelleVague-Black';}
	.st4{font-size:22.183px;}
</style>
<g>
	<circle class="st0" cx="47" cy="50" r="32"/>
	<g>
		<path class="st1" d="M65.6,23.8C60.4,20.1,54.1,18,47.3,18c-17.5,0-31.7,14.1-31.8,31.6L65.6,23.8z"/>
		<path class="st1" d="M77.8,40.8c-1.3-4.5-3.6-8.5-6.5-11.9l-6,11.9H77.8z"/>
		<path class="st1" d="M15.5,50.9c0.3,9.3,4.6,17.5,11.1,23.1l20.6-23.1H15.5z"/>
		<path class="st1" d="M32.9,78.2c4.3,2.2,9.2,3.4,14.4,3.4c17.6,0,31.8-14.2,31.8-31.8c0-1.1-0.1-2.2-0.2-3.2L32.9,78.2z"/>
	</g>
	<text transform="matrix(1 0 0 1 8.4299 47.0312)"><tspan x="0" y="0" class="st2 st3 st4">Bday </tspan><tspan x="0" y="20.6" class="st2 st3 st4">  finder</tspan></text>
</g>
</svg>
