<?xml version="1.0" encoding="utf-8"?>
<!-- Generator: Adobe Illustrator 23.0.1, SVG Export Plug-In . SVG Version: 6.00 Build 0)  -->
<svg version="1.1" id="Laag_1" xmlns="http://www.w3.org/2000/svg" xmlns:xlink="http://www.w3.org/1999/xlink" x="0px" y="0px"
	 viewBox="0 0 100 100" style="enable-background:new 0 0 100 100;" xml:space="preserve">
<style type="text/css">
	.st0{fill:#C2EEBF;}
</style>
<g id="_x36_B4OfC.tif">
	<g>
		<path class="st0" d="M91.1,52c-0.1,0.9-0.1,1.7-0.2,2.6c-0.5,4.9-1.8,9.6-4.1,14c-5.6,10.8-14.2,17.9-25.9,21.3
			c-5,1.4-10.2,1.8-15.4,1.2c-14.7-1.6-27.5-11.3-33.3-25.1c-1.5-3.6-2.5-7.4-2.9-11.3c-1.1-10.9,1.8-20.8,8.4-29.5
			c2.2-2.9,4.8-5.4,7.7-7.6c0.9-0.7,2.1-0.6,2.7,0.3c0.7,0.9,0.5,2-0.4,2.7c-2.2,1.7-4.3,3.6-6.1,5.7c-4.1,4.9-6.9,10.4-8.1,16.6
			c-2.2,11.7,0.4,22.2,8,31.4c5.3,6.4,12.1,10.5,20.3,12.4c19.2,4.3,38.4-7.1,43.9-25.9c1.3-4.5,1.8-9,1.3-13.7
			c-1-10.5-5.7-19.2-13.9-25.8c-0.4-0.3-0.8-0.7-1-1.3c-0.2-0.8,0.1-1.6,0.8-2.1c0.7-0.4,1.6-0.5,2.2,0.1c1.2,1,2.5,2.1,3.6,3.2
			c6.1,6,9.9,13.2,11.5,21.6c0.3,1.7,0.4,3.5,0.6,5.3c0,0.2,0,0.3,0.1,0.5C91.1,49.6,91.1,50.8,91.1,52z"/>
		<path class="st0" d="M52.1,30.1c0,6.6,0,13.2,0,19.9c0,0.7-0.2,1.2-0.7,1.7c-1.1,0.9-2.8,0.3-3-1.1c0-0.2-0.1-0.5-0.1-0.7
			c0-13.2,0-26.3,0-39.5c0-0.3,0-0.6,0.1-0.9c0.2-0.9,1.1-1.4,2-1.3C51.3,8.3,52,9,52.1,9.9c0,0.2,0,0.4,0,0.5
			C52.1,17,52.1,23.6,52.1,30.1z"/>
	</g>
</g>
</svg>
