<?xml version="1.0" encoding="utf-8"?>
<!-- Generator: Adobe Illustrator 23.0.1, SVG Export Plug-In . SVG Version: 6.00 Build 0)  -->
<svg version="1.1" id="Laag_1" xmlns="http://www.w3.org/2000/svg" xmlns:xlink="http://www.w3.org/1999/xlink" x="0px" y="0px"
	 viewBox="0 0 100 100" style="enable-background:new 0 0 100 100;" xml:space="preserve">
<style type="text/css">
	.st0{fill:#FFFFFF;}
	.st1{fill:#C2EEBF;}
	.st2{fill:#1D1D1B;}
</style>
<g>
	<circle class="st0" cx="47" cy="50" r="32"/>
	<g>
		<path class="st1" d="M65.6,23.8C60.4,20.1,54.1,18,47.3,18c-17.5,0-31.7,14.1-31.8,31.6L65.6,23.8z"/>
		<path class="st1" d="M77.8,40.8c-1.3-4.5-3.6-8.5-6.5-11.9l-6,11.9H77.8z"/>
		<path class="st1" d="M15.5,50.9c0.3,9.3,4.6,17.5,11.1,23.1l20.6-23.1H15.5z"/>
		<path class="st1" d="M32.9,78.2c4.3,2.2,9.2,3.4,14.4,3.4c17.6,0,31.8-14.2,31.8-31.8c0-1.1-0.1-2.2-0.2-3.2L32.9,78.2z"/>
	</g>
	<g>
		<path class="st2" d="M21.7,38.8c0.5,0.1,1.1,0.2,1.7,0.3c0.6,0.2,1.2,0.4,1.7,0.7c0.5,0.3,0.9,0.7,1.3,1.2s0.5,1.1,0.5,1.8
			c0,0.5-0.1,1-0.2,1.4c-0.1,0.4-0.3,0.7-0.6,1c-0.2,0.3-0.5,0.5-0.8,0.7s-0.6,0.4-0.9,0.5c-0.7,0.3-1.6,0.5-2.5,0.5H9v-0.2h2.2
			V31.7H9v-0.2h11.7c0.9,0,1.7,0.2,2.4,0.4c0.3,0.1,0.6,0.3,0.9,0.4c0.3,0.2,0.5,0.4,0.8,0.6c0.2,0.2,0.4,0.5,0.5,0.9
			c0.1,0.3,0.2,0.7,0.2,1.1c0,0.4-0.1,0.8-0.3,1.2s-0.4,0.7-0.7,1c-0.3,0.3-0.6,0.5-0.9,0.7c-0.3,0.2-0.6,0.4-0.9,0.5
			c-0.3,0.1-0.5,0.2-0.7,0.3C21.9,38.7,21.8,38.8,21.7,38.8L21.7,38.8z M16.3,31.7v7.1h0.2c0.8,0,1.5-0.1,2.1-0.4
			c0.3-0.1,0.5-0.2,0.8-0.4c0.3-0.2,0.5-0.4,0.7-0.6c0.2-0.2,0.4-0.5,0.5-0.8s0.2-0.7,0.2-1.1V35c0-0.8-0.2-1.4-0.5-1.9
			s-0.7-0.8-1.1-1c-0.5-0.2-1-0.4-1.6-0.4H16.3z M17.4,46.9c0.8,0,1.4-0.2,2-0.5c0.3-0.1,0.5-0.3,0.8-0.5c0.3-0.2,0.5-0.4,0.7-0.7
			c0.2-0.3,0.3-0.6,0.5-1c0.1-0.4,0.2-0.8,0.2-1.3c0-0.7-0.1-1.2-0.3-1.7s-0.4-0.8-0.7-1.1s-0.6-0.5-1-0.7c-0.3-0.2-0.7-0.3-1-0.4
			c-0.3-0.1-0.6-0.1-0.8-0.1c-0.2,0-0.3,0-0.3,0h-1.1v7.9H17.4z"/>
		<path class="st2" d="M41.2,46.9V47h-5.7v-1.3c-0.1,0.1-0.2,0.3-0.3,0.4c-0.1,0.1-0.2,0.3-0.4,0.5c-0.1,0.1-0.2,0.2-0.3,0.2
			c-0.1,0.1-0.2,0.1-0.3,0.2c-0.1,0.1-0.2,0.1-0.3,0.1c-0.4,0.1-0.7,0.1-1.1,0.1c-0.5,0-0.9-0.1-1.4-0.2s-1-0.3-1.4-0.6
			c-0.5-0.3-0.9-0.7-1.3-1.1s-0.6-0.8-0.8-1.3c-0.2-0.5-0.3-0.9-0.4-1.4c-0.1-0.5-0.1-1-0.1-1.5c0-0.5,0-1,0.1-1.5s0.2-1,0.4-1.4
			c0.2-0.5,0.5-0.9,0.8-1.3c0.3-0.4,0.8-0.8,1.3-1.1c0.4-0.3,0.9-0.4,1.3-0.5c0.4-0.1,0.8-0.2,1.3-0.2c0.5,0,1,0.1,1.3,0.2
			c0.4,0.1,0.7,0.3,0.9,0.6c0.2,0.2,0.3,0.3,0.4,0.5c0.1,0.1,0.2,0.3,0.3,0.4v-5.2h-1.7v-0.2h1.7c0.5,0,1.1-0.1,1.6-0.1
			c0.4,0,0.9-0.1,1.3-0.1s0.9-0.1,1.2-0.2v15.8H41.2z M35.4,38.9c0-0.3,0-0.6,0-0.9c0-0.3-0.1-0.5-0.2-0.8c-0.1-0.2-0.2-0.4-0.2-0.6
			c-0.1-0.2-0.2-0.3-0.4-0.5c-0.2-0.1-0.3-0.3-0.4-0.3s-0.2-0.1-0.4-0.1c-0.3,0-0.5,0.1-0.7,0.3c-0.2,0.2-0.4,0.4-0.6,0.6
			c-0.3,0.4-0.4,1-0.5,1.8c0,0.8-0.1,1.7-0.1,2.7s0,1.8,0.1,2.6s0.2,1.4,0.5,1.8c0.1,0.1,0.1,0.2,0.2,0.3c0.1,0.1,0.2,0.3,0.3,0.4
			c0.1,0.1,0.3,0.2,0.4,0.3c0.2,0.1,0.3,0.1,0.5,0.1c0.1,0,0.2,0,0.3-0.1c0.1-0.1,0.2-0.2,0.3-0.3c0.1-0.1,0.2-0.3,0.3-0.4
			c0.1-0.2,0.1-0.4,0.2-0.5c0.1-0.5,0.2-0.9,0.2-1.5V38.9z"/>
		<path class="st2" d="M53.8,46.9V47h-5.7v-1.4l-0.2,0.1c-0.5,0.3-1.2,0.6-1.8,0.9c-0.7,0.3-1.3,0.5-2,0.5H44
			c-0.3,0-0.6-0.1-0.9-0.2s-0.6-0.3-0.8-0.5c-0.2-0.2-0.4-0.5-0.6-0.8c-0.1-0.3-0.2-0.7-0.2-1.1c0-0.2,0-0.5,0.1-0.7
			c0.1-0.2,0.2-0.4,0.3-0.6c0.1-0.1,0.2-0.3,0.4-0.5c0.2-0.2,0.4-0.4,0.6-0.5c0.2-0.2,0.5-0.4,0.7-0.5s0.5-0.3,0.8-0.5
			c0.6-0.3,1.2-0.6,1.8-1c0.6-0.3,1.2-0.6,1.8-0.9v-0.6c0-0.4,0-0.8-0.1-1.2c0-0.4-0.1-0.7-0.3-1S47.3,36,47,35.8
			c-0.3-0.2-0.7-0.3-1.2-0.3c-0.2,0-0.4,0-0.5,0c-0.2,0-0.4,0.1-0.5,0.1c-0.1,0.1-0.3,0.2-0.4,0.3c-0.1,0.1-0.2,0.3-0.2,0.4
			c0,0.2,0.1,0.4,0.3,0.5s0.4,0.3,0.6,0.4c0.2,0.1,0.4,0.3,0.6,0.5c0.2,0.2,0.3,0.4,0.3,0.7c0,0.5-0.2,0.8-0.5,1.1S44.7,40,44.3,40
			c-0.3,0-0.5,0-0.7-0.1c-0.2-0.1-0.5-0.2-0.7-0.4c-0.2-0.2-0.4-0.4-0.5-0.6c-0.1-0.2-0.2-0.5-0.2-0.8c0-0.6,0.2-1.1,0.5-1.5
			c0.4-0.4,0.8-0.7,1.3-0.9c0.5-0.2,1.1-0.3,1.7-0.4c0.6-0.1,1.1-0.1,1.6-0.1c0.5,0,1.1,0.1,1.7,0.2c0.6,0.1,1.1,0.3,1.5,0.5
			c0.5,0.3,0.8,0.6,1.1,1.1s0.4,1,0.4,1.7v8.2H53.8z M47.3,45.9c0.1-0.1,0.3-0.1,0.4-0.2c0.1-0.1,0.3-0.1,0.4-0.2v-5.9
			c-0.3,0.1-0.6,0.4-0.9,0.6c-0.3,0.3-0.5,0.6-0.7,0.9c-0.2,0.3-0.3,0.7-0.4,1.1c-0.1,0.4-0.2,0.8-0.2,1.2v1.4
			c0,0.3,0.1,0.6,0.3,0.8c0.2,0.3,0.5,0.4,0.7,0.4C47.1,45.9,47.2,45.9,47.3,45.9z"/>
		<path class="st2" d="M67.3,35.6v0.2H67c-0.4,0-0.7,0-0.9,0.1c-0.2,0.1-0.4,0.2-0.6,0.4s-0.3,0.3-0.3,0.5c-0.1,0.2-0.2,0.3-0.2,0.5
			l-4.7,12c-0.2,0.4-0.4,0.7-0.6,1c-0.3,0.3-0.6,0.5-0.9,0.7c-0.3,0.2-0.6,0.4-1,0.5s-0.6,0.2-0.9,0.2c-0.3,0-0.5,0-0.7-0.1
			c-0.2-0.1-0.5-0.2-0.7-0.4s-0.3-0.4-0.5-0.6s-0.2-0.5-0.2-0.8c0-0.3,0.1-0.5,0.2-0.8c0.1-0.3,0.3-0.5,0.5-0.7
			c0.2-0.2,0.4-0.3,0.7-0.4c0.3-0.1,0.5-0.2,0.8-0.2c0.4,0,0.7,0.1,1,0.3s0.5,0.5,0.7,0.8l0.4,0.8c0.1,0.2,0.2,0.3,0.4,0.3
			c0.1,0,0.2-0.1,0.3-0.2c0.1-0.1,0.2-0.2,0.3-0.4l0.9-2.2c-0.1-0.2-0.3-0.6-0.5-1c-0.2-0.4-0.5-0.9-0.8-1.5c-0.3-0.6-0.6-1.2-1-1.8
			c-0.4-0.7-0.7-1.3-1.1-2c-0.4-0.7-0.7-1.3-1.1-1.9c-0.4-0.6-0.7-1.1-1-1.6c-0.3-0.5-0.6-0.8-0.9-1.1c-0.3-0.3-0.5-0.4-0.6-0.4
			h-0.2v-0.2h0.7c0.8,0,1.6,0,2.2,0c0.6,0,1.1,0.1,1.6,0.2c0.4,0.1,0.8,0.3,1.1,0.6c0.3,0.3,0.6,0.6,0.9,1.1l2.7,4.9l2-5.1
			c0.1-0.1,0.1-0.3,0.1-0.4c0-0.1,0-0.2,0-0.3c0-0.2,0-0.4-0.1-0.5c-0.1-0.1-0.2-0.2-0.3-0.3c-0.1-0.1-0.2-0.1-0.3-0.1
			c-0.1,0-0.2,0-0.3,0h-0.4v-0.2H67.3z"/>
		<path class="st2" d="M30.3,55.4c-0.2,0-0.5,0-0.8,0c-0.3,0-0.7-0.1-1-0.2s-0.6-0.3-0.9-0.5c-0.2-0.2-0.4-0.6-0.4-1
			c0-0.2,0.1-0.4,0.2-0.6c0.1-0.2,0.2-0.4,0.2-0.5c0-0.1,0-0.2-0.1-0.2c-0.1-0.1-0.2-0.1-0.4-0.1H27c-0.3,0-0.5,0.1-0.6,0.3
			c-0.1,0.2-0.2,0.4-0.2,0.7c0,0.5,0.1,1,0.3,1.4s0.5,0.7,0.8,0.9c0.3,0.3,0.7,0.4,1.2,0.6c0.4,0.1,0.9,0.2,1.4,0.2v0.2h-2v11.1h1.7
			v0.2h-7.4v-0.2h1.7V56.3h-1.7v-0.2h1.7c0-0.9,0.1-1.6,0.4-2.2s0.5-1,0.9-1.3c0.4-0.3,0.8-0.5,1.3-0.6s1-0.2,1.5-0.2
			c1.1,0,1.9,0.3,2.6,0.9c0.6,0.6,1,1.5,1,2.6H30.3z"/>
		<path class="st2" d="M38.2,67.4v0.2h-7.8v-0.2h1.7V56.3h-1.7v-0.2c0.4,0,0.9,0,1.5,0c0.6,0,1.2,0,1.7-0.1s1.1-0.1,1.7-0.1
			c0.5-0.1,0.9-0.1,1.2-0.2v11.8H38.2z M36.7,52.7c-0.1-0.2-0.3-0.4-0.5-0.5c-0.2-0.2-0.5-0.3-0.8-0.4c-0.3-0.1-0.6-0.1-1-0.1
			c-0.3,0-0.7,0-1,0.1c-0.3,0.1-0.6,0.2-0.8,0.4s-0.4,0.3-0.5,0.5c-0.1,0.2-0.2,0.4-0.2,0.7c0,0.2,0.1,0.5,0.2,0.7
			c0.1,0.2,0.3,0.4,0.5,0.5s0.5,0.3,0.8,0.4c0.3,0.1,0.6,0.1,1,0.1c0.3,0,0.7,0,1-0.1c0.3-0.1,0.6-0.2,0.8-0.4
			c0.2-0.2,0.4-0.3,0.5-0.5c0.1-0.2,0.2-0.4,0.2-0.7C36.9,53.1,36.8,52.9,36.7,52.7z"/>
		<path class="st2" d="M53.1,67.6h-2c-0.7,0-1.3-0.1-1.8-0.3s-0.9-0.4-1.2-0.7s-0.5-0.7-0.7-1.1s-0.2-0.8-0.2-1.3v-6.2
			c0-0.3,0-0.6-0.1-0.9c-0.1-0.3-0.2-0.6-0.3-0.8c-0.1-0.1-0.2-0.2-0.3-0.2s-0.3-0.1-0.4-0.1s-0.3,0-0.4,0.1
			c-0.1,0.1-0.2,0.2-0.3,0.3c-0.1,0.1-0.2,0.3-0.3,0.6c-0.1,0.2-0.2,0.5-0.2,0.8c-0.1,0.3-0.1,0.5-0.1,0.8c0,0.3,0,0.5,0,0.7v8h1.7
			v0.2h-7.9v-0.2h1.7V56.3h-1.7v-0.2c0.4,0,0.9,0,1.5,0c0.6,0,1.2,0,1.8-0.1c0.6,0,1.2-0.1,1.7-0.1c0.5-0.1,0.9-0.1,1.3-0.2v1.7
			c0.1-0.3,0.2-0.5,0.4-0.6c0.1-0.2,0.3-0.3,0.5-0.5c0.4-0.3,0.7-0.5,1.1-0.6s0.8-0.2,1.3-0.2c0.4,0,0.9,0,1.4,0.1
			c0.5,0.1,0.9,0.2,1.3,0.5c0.4,0.3,0.7,0.6,0.9,1c0.1,0.2,0.1,0.3,0.2,0.5c0.1,0.2,0.1,0.3,0.1,0.5v6.5c0,0.9,0.1,1.6,0.3,2.1
			c0.2,0.5,0.5,0.8,1,0.8V67.6z"/>
		<path class="st2" d="M67.5,67.4v0.2h-5.7v-1.3c-0.1,0.1-0.2,0.3-0.3,0.4c-0.1,0.1-0.2,0.3-0.4,0.5c-0.1,0.1-0.2,0.2-0.3,0.2
			c-0.1,0.1-0.2,0.1-0.3,0.2c-0.1,0.1-0.2,0.1-0.3,0.1c-0.4,0.1-0.7,0.1-1.1,0.1c-0.5,0-0.9-0.1-1.4-0.2c-0.5-0.1-1-0.3-1.4-0.6
			c-0.5-0.3-0.9-0.7-1.3-1.1c-0.3-0.4-0.6-0.8-0.8-1.3s-0.3-0.9-0.4-1.4c-0.1-0.5-0.1-1-0.1-1.5c0-0.5,0-1,0.1-1.5
			c0.1-0.5,0.2-1,0.4-1.4c0.2-0.5,0.5-0.9,0.8-1.3c0.3-0.4,0.8-0.8,1.3-1.1c0.4-0.3,0.9-0.4,1.3-0.5c0.4-0.1,0.9-0.2,1.3-0.2
			c0.5,0,1,0.1,1.3,0.2c0.4,0.1,0.7,0.3,0.9,0.6c0.2,0.2,0.3,0.3,0.4,0.5s0.2,0.3,0.3,0.4v-5.2h-1.7v-0.2h1.7c0.5,0,1.1-0.1,1.6-0.1
			c0.4,0,0.9-0.1,1.3-0.1c0.5-0.1,0.9-0.1,1.2-0.2v15.8H67.5z M61.7,59.5c0-0.3,0-0.6,0-0.9s-0.1-0.5-0.2-0.8
			c-0.1-0.2-0.2-0.4-0.2-0.6c-0.1-0.2-0.2-0.3-0.4-0.5c-0.2-0.1-0.3-0.3-0.4-0.3c-0.1-0.1-0.2-0.1-0.4-0.1c-0.3,0-0.5,0.1-0.7,0.3
			s-0.4,0.4-0.6,0.6c-0.3,0.4-0.4,1-0.5,1.8s-0.1,1.7-0.1,2.7s0,1.8,0.1,2.6s0.2,1.4,0.5,1.8c0.1,0.1,0.1,0.2,0.2,0.3
			c0.1,0.1,0.2,0.3,0.3,0.4c0.1,0.1,0.3,0.2,0.4,0.3c0.2,0.1,0.3,0.1,0.5,0.1c0.1,0,0.2,0,0.3-0.1c0.1-0.1,0.2-0.2,0.3-0.3
			c0.1-0.1,0.2-0.3,0.3-0.4c0.1-0.2,0.1-0.4,0.2-0.5c0.1-0.5,0.2-0.9,0.2-1.5V59.5z"/>
		<path class="st2" d="M72.7,62.1c0,0.6,0,1.2,0.1,1.8c0.1,0.6,0.2,1.1,0.4,1.6s0.5,0.8,1,1.1c0.4,0.3,1,0.4,1.7,0.4
			c0.5,0,1-0.1,1.4-0.3c0.4-0.2,0.8-0.4,1.1-0.7c0.3-0.3,0.6-0.7,0.8-1.1c0.2-0.4,0.4-0.8,0.6-1.3l0.2,0c-0.2,0.6-0.4,1.1-0.7,1.6
			c-0.2,0.5-0.6,0.9-1,1.3c-0.4,0.4-0.9,0.7-1.5,0.9c-0.6,0.2-1.3,0.3-2.2,0.3c-0.4,0-0.8,0-1.1,0s-0.6-0.1-0.9-0.1
			c-0.3-0.1-0.7-0.2-1-0.4c-0.4-0.2-0.8-0.4-1.2-0.7c-0.6-0.4-1.1-1-1.6-1.8s-0.7-1.8-0.7-3c0-0.9,0.1-1.7,0.4-2.3
			c0.2-0.7,0.6-1.2,1-1.6c0.4-0.4,0.8-0.8,1.3-1.1c0.5-0.3,1-0.5,1.5-0.6c0.5-0.1,1-0.2,1.4-0.3c0.4,0,0.8-0.1,1.1-0.1
			c0.6,0,1.3,0.1,1.9,0.2c0.7,0.1,1.3,0.3,1.8,0.6s1,0.7,1.3,1.2c0.3,0.5,0.5,1.2,0.5,2c0,0.5-0.1,0.8-0.4,1.1
			c-0.3,0.3-0.6,0.5-1,0.6c-0.4,0.1-0.8,0.2-1.3,0.2c-0.5,0-0.9,0-1.3,0h-3.6V62.1z M74.3,56c-0.4,0-0.7,0.2-0.9,0.4
			s-0.4,0.6-0.5,1.1c-0.1,0.4-0.2,0.9-0.2,1.4c0,0.5,0,1,0,1.5v1.2h2c0.1,0,0.2,0,0.5,0c0.2,0,0.4-0.1,0.6-0.3
			c0.1-0.1,0.2-0.2,0.2-0.3c0.1-0.1,0.1-0.3,0.1-0.4c0-0.1,0-0.3,0-0.4c0-0.1,0-0.2,0-0.2c0-0.8,0-1.4-0.1-2
			c-0.1-0.5-0.2-0.9-0.4-1.2c-0.2-0.3-0.3-0.5-0.5-0.6C74.8,56.1,74.6,56,74.3,56L74.3,56z"/>
		<path class="st2" d="M88.9,56.4c0.2,0,0.4,0,0.7,0.1c0.3,0.1,0.5,0.2,0.8,0.3c0.3,0.2,0.5,0.4,0.6,0.7c0.2,0.3,0.3,0.7,0.3,1.2
			c0,0.4-0.1,0.8-0.2,1.2s-0.3,0.6-0.5,0.8c-0.2,0.2-0.5,0.4-0.7,0.5s-0.5,0.2-0.7,0.2c-0.5,0-0.9-0.2-1.1-0.5
			c-0.2-0.3-0.3-0.8-0.3-1.4c0-0.2,0-0.4,0.1-0.6c0.1-0.2,0.1-0.4,0.2-0.5c0.1-0.2,0.1-0.3,0.2-0.4c0.1-0.1,0.1-0.2,0.1-0.3
			c0-0.4-0.1-0.6-0.3-0.6c-0.3,0-0.5,0.1-0.7,0.4l-0.2,0.3c-0.2,0.2-0.3,0.6-0.3,1.2c0,0.6-0.1,1.3-0.1,2.1v6.5h1.7v0.2h-7.7v-0.2
			h1.7V56.3h-1.7v-0.2c0.4,0,0.9,0,1.5,0c0.6,0,1.1,0,1.7-0.1s1.1-0.1,1.6-0.1c0.5-0.1,0.9-0.1,1.2-0.2v2.4c0-0.1,0.1-0.3,0.2-0.4
			c0.1-0.1,0.2-0.3,0.3-0.4l0.1-0.1c0.3-0.3,0.6-0.5,0.9-0.6S88.6,56.4,88.9,56.4z"/>
	</g>
</g>
</svg>
