<?xml version="1.0" encoding="utf-8"?>
<!-- Generator: Adobe Illustrator 23.0.1, SVG Export Plug-In . SVG Version: 6.00 Build 0)  -->
<svg version="1.1" id="Laag_1" xmlns="http://www.w3.org/2000/svg" xmlns:xlink="http://www.w3.org/1999/xlink" x="0px" y="0px"
	 viewBox="0 0 100 100" style="enable-background:new 0 0 100 100;" xml:space="preserve">
<style type="text/css">
	.st0{fill:#C2EEBF;}
</style>
<path class="st0" d="M50.2,8.5c-24.7,0-44.8,20-44.8,44.8c0,13.1,5.7,25,14.7,33.1c1.2-12,9.4-21.9,20.5-25.4
	c-5.3-3.1-8.9-8.9-8.9-15.6c0-10,8.1-18.1,18.1-18.1s18.1,8.1,18.1,18.1c0,6.6-3.6,12.4-8.9,15.6C70.3,64.6,78.6,74.8,79.6,87
	C89,78.8,95,66.7,95,53.2C95,28.5,75,8.5,50.2,8.5z"/>
</svg>
